<svg width="50" height="49" viewBox="0 0 50 49" fill="none" xmlns="http://www.w3.org/2000/svg">
<g clip-path="url(#clip0_10_40)">
<path d="M25.0045 38.8007C23.9929 38.8007 23.1126 38.4277 22.3871 37.6919C21.6734 36.9671 21.3115 36.0895 21.3115 35.0829V22.2113C21.3115 21.21 21.6734 20.335 22.3871 19.6106C23.1145 18.8695 23.9952 18.4931 25.0045 18.4931C26.0211 18.4931 26.9071 18.8692 27.6383 19.6102C28.3524 20.3353 28.7144 21.2104 28.7144 22.2113V35.0828C28.7144 36.0898 28.3524 36.9675 27.6379 37.6918C26.9129 38.4277 26.0268 38.8007 25.0045 38.8007ZM25.0045 20.0554C24.4144 20.0554 23.9365 20.2621 23.5013 20.7057C23.0787 21.1349 22.8738 21.6269 22.8738 22.2113V35.0828C22.8738 35.681 23.0729 36.1615 23.5001 36.5952C23.9327 37.0339 24.4106 37.2384 25.0045 37.2384C25.6011 37.2384 26.0989 37.0278 26.5253 36.5949C26.9529 36.1616 27.152 35.681 27.152 35.0828V22.2113C27.152 21.6269 26.9472 21.1349 26.5253 20.7069C26.087 20.2625 25.6037 20.0554 25.0045 20.0554ZM25.0045 16C23.9972 16 23.1153 15.6395 22.3829 14.9282C21.6501 14.1745 21.2866 13.2926 21.2866 12.2906C21.2866 11.2782 21.6513 10.3949 22.3707 9.66478C23.1084 8.93736 23.9918 8.57236 25.0045 8.57236C26.0065 8.57236 26.8888 8.93587 27.6265 9.65337C28.3535 10.401 28.7144 11.2832 28.7144 12.2906C28.7144 13.2877 28.3551 14.1685 27.6459 14.9085C26.8819 15.6406 26.0012 16 25.0045 16ZM25.0045 10.1346C24.4087 10.1346 23.9087 10.3421 23.4757 10.7693C23.0565 11.1946 22.849 11.6951 22.849 12.2905C22.849 12.8798 23.058 13.3814 23.4875 13.8235C23.9078 14.2316 24.4094 14.4376 25.0044 14.4376C25.5929 14.4376 26.0957 14.2301 26.5416 13.8036C26.9444 13.3817 27.1519 12.879 27.1519 12.2905C27.1519 11.6954 26.9456 11.1942 26.5214 10.7575C26.0954 10.3437 25.5938 10.1346 25.0045 10.1346Z" fill="white"/>
<path d="M24.9991 48.7188C20.8891 48.7188 16.7837 47.6622 13.0628 45.5582L2.09689 46.5312C1.80165 46.5541 1.5247 46.4184 1.36837 46.172C1.21197 45.9252 1.20587 45.612 1.35314 45.3595L5.30783 38.5803C4.66126 37.6755 4.07423 36.7212 3.55931 35.7371C-2.6428 23.916 1.92908 9.25211 13.7513 3.04961C25.5724 -3.1525 40.2385 1.41977 46.441 13.242C52.6428 25.0661 48.0698 39.7307 36.2464 45.9325C32.7017 47.7919 28.8481 48.7188 24.9991 48.7188ZM13.2379 43.9771C13.3749 43.9771 13.5099 44.0134 13.6292 44.082C20.4119 48.0081 28.5952 48.1825 35.521 44.5485C46.581 38.7473 50.8592 25.0285 45.0572 13.9673C39.2556 2.90867 25.5369 -1.36953 14.4767 4.43328C9.12025 7.24375 5.17814 11.9724 3.37736 17.7481C1.57658 23.5238 2.13275 29.655 4.94322 35.0119C5.50048 36.0765 6.14743 37.1033 6.86603 38.0641C7.05408 38.3155 7.07314 38.655 6.91525 38.9258L3.464 44.8415L13.1688 43.9802C13.1917 43.9783 13.215 43.9771 13.2379 43.9771Z" fill="white"/>
</g>
<defs>
<clipPath id="clip0_10_40">
<rect width="50" height="49" fill="white"/>
</clipPath>
</defs>
</svg>
